<svg width="1014" height="854" viewBox="0 0 1014 854" fill="none" xmlns="http://www.w3.org/2000/svg">
<path d="M217.213 19.391C219.607 19.1197 221.693 18.9633 224.096 18.823C239.049 19.5976 256.91 19.3977 271.982 19.1413L275.661 18.8154C278.075 18.9549 280.486 19.1325 282.894 19.3479C285.792 20.191 286.171 19.628 286.954 22.7995C290.316 22.7308 293.68 22.7276 297.042 22.7902L301.904 22.7425L303.569 22.817L305.428 22.7426C312.996 23.4876 311.786 25.7503 316.437 26.8426C323.224 27.3988 329.381 30.6224 335.552 33.1135C355.682 41.2397 376.837 53.3225 394.136 66.4677C403.853 74.8057 413.086 84.3542 421.985 93.5942C430.285 102.212 440.296 110.204 448.231 118.868C468.781 141.305 490.626 161.157 512.555 182.044C542.242 209.944 571.395 238.407 599.993 267.419C611.489 279.027 623.734 289.417 633.963 302.222C635.523 304.174 636.508 306.134 637.884 307.955C639.795 311.649 642.37 315.452 644.841 318.806C645.197 319.92 646.648 322.988 647.435 323.813C650.218 326.718 660.863 353.049 662.635 354.159L663.541 352.89C664.705 354.503 664.799 361.957 665.091 364.414C670.28 371.329 671.884 387.021 674.785 395.759L674.959 395.46C676.538 398.854 676.142 399.177 675.959 402.766C675.701 406.699 676.736 409.399 676.687 412.177C677.781 423.657 676.959 436.684 677.201 448.312C677.256 451.025 676.954 459.305 677.37 461.323C676.83 468.865 674.741 478.261 676.256 485.867L675.929 486.928C675.003 486.179 675.107 486.077 674.473 484.965L674.013 485.12C671.364 496.825 670.027 509.158 664.967 519.797C664.299 521.193 664.437 524.846 664.021 526.525C663.769 527.886 661.333 527.748 660.268 530.857C657.006 540.392 651.792 549.461 648.301 558.803C648.178 558.853 648.054 558.898 647.93 558.952C645.375 560.091 636.468 574.869 633.904 578.225C626.754 587.582 607.083 610.925 597.973 616.96C596.567 617.89 593.943 619.118 592.229 618.346C586.976 615.984 569.216 595.449 564.102 590.27C549.763 575.75 535.499 560.665 520.249 547.115C518.66 545.511 516.437 543.58 514.734 542.015C516.892 535.698 519.739 533.936 524.71 529.777C530.766 522.208 538.925 515.985 544.916 507.162C560.69 483.937 564.231 460.786 563.414 433.311C563.131 413.503 558.373 396.68 547.273 380.227C534.583 362.238 519.353 345.23 503.544 329.858C455.515 283.156 409.391 234.209 360.726 188.236C335.742 164.634 313.331 145.052 279.273 136.164C261.145 131.433 254.616 131.278 235.845 132.165C232.912 131.899 226.772 132.06 223.456 131.975L223.66 135.513L219.502 135.924C183.9 144.962 148.923 175.85 139.746 212.92C139.378 214.408 138.587 214.881 137.771 216.136C135.845 219.13 135.736 225.191 136.387 228.618C135.771 231.759 134.703 231.288 134.483 233.111C133.39 242.186 133.627 251.695 133.622 260.817L133.635 304.404L133.64 413.232L133.616 565.68L133.576 613.053C133.567 627.123 133.399 639.535 134.469 653.565L136.137 646.288C136.076 650.09 135.689 658.729 136.586 662.08C137.863 667.056 139.632 665.214 140.706 671.269C141.889 677.933 149.918 688.948 154.721 693.938C168.552 708.305 193.064 714.147 212.422 714.41C217.9 711.494 227.643 712.419 234.368 711.845C243.979 707.929 254.38 705.177 263.346 700.196C290.415 685.156 311.025 659.655 333.748 638.876C344.118 646.585 352.45 656.085 361.838 664.546C374.87 676.294 387.592 687.76 399.757 700.483C403.063 703.944 409.307 709.276 411.459 713.316C411.638 717.415 409.021 721.098 406.449 723.979C387.386 745.337 316.178 808.503 290.319 813.251C289.29 814.038 288.268 814.741 287.397 815.692C284.886 816.281 282.381 816.885 279.88 817.509C274.233 819.37 273.727 820.043 267.668 820.845L267.153 820.86C260.01 824.296 261.521 824.628 252.991 824.633C252.231 824.771 249.851 825.256 249.203 825.301C242.008 827.311 239.562 827.613 231.969 827.846C227.453 828.167 223.76 828.212 219.258 828.217C212.489 828.192 205.72 828.227 198.952 828.326L197.15 828.341L193.462 828.078C184.811 827.653 181.037 827.529 172.669 825.286C166.484 824.915 160.756 822.647 155.058 821.088C130.882 814.459 110.733 802.978 91.5932 786.849C70.0907 768.675 49.3636 743.441 38.6528 717.147C31.2486 698.968 21.5367 671.437 20.3555 651.738C18.7374 624.757 19.3716 596.657 19.3599 569.566L19.3916 426.348L19.3384 300.351C19.3093 260.847 16.1608 224.451 29.6471 186.298C42.3946 150.235 54.3861 124.359 79.796 94.866C98.8031 72.8477 121.825 54.6444 147.634 41.2272C152.654 38.5821 158.016 35.1122 163.474 34.6776C169.132 29.1225 190.451 23.8486 198.79 22.201C201.969 21.813 202.31 20.939 204.891 20.2814C208.395 19.3884 213.499 19.4399 217.213 19.391Z" fill="#FEFEFE"/>
<path d="M163.474 34.6778C169.132 29.1227 190.451 23.8488 198.79 22.2012L202.715 22.8437C197.5 23.7648 197.666 25.5124 196.293 25.7953C190.7 26.9482 184.694 27.3493 178.982 28.9252C172.185 30.8001 170.876 33.3235 163.474 34.6778Z" fill="#C8C7C7"/>
<path d="M192.958 825.544C196.103 827.45 213.724 828.737 217.082 827.331C224.085 824.39 220.007 824.336 229.85 824.821C230.36 826.192 231.008 826.757 231.969 827.846C227.453 828.168 223.76 828.212 219.258 828.217C212.489 828.192 205.72 828.227 198.952 828.326L197.15 828.341L193.462 828.078L192.958 825.544Z" fill="#DADAD9"/>
<path d="M514.734 542.016C516.893 535.698 519.74 533.936 524.711 529.777C524.176 533.56 523.562 532.188 521.844 534.738C519.834 537.723 520.215 543.521 520.249 547.115C518.66 545.511 516.437 543.58 514.734 542.016Z" fill="#E8E7E7"/>
<path d="M303.569 22.8167L305.428 22.7423C312.996 23.4873 311.786 25.75 316.437 26.8423C312.804 26.8133 309.172 26.8026 305.539 26.8103L302.111 26.7851L301.904 22.7422L303.569 22.8167Z" fill="#B5B4B4"/>
<path d="M303.569 22.8167L305.428 22.7423L305.539 26.8103L302.111 26.7851L301.904 22.7422L303.569 22.8167Z" fill="#C8C7C7"/>
<path d="M172.669 825.285C175.811 825.231 191.061 824.83 192.957 825.543L193.461 828.078C184.811 827.652 181.036 827.528 172.669 825.285Z" fill="#B5B4B4"/>
<path d="M229.85 824.82L242.994 824.815C245.404 825.127 246.742 825.261 249.203 825.301C242.008 827.311 239.562 827.613 231.969 827.845C231.008 826.756 230.36 826.192 229.85 824.82Z" fill="#C8C7C7"/>
<path d="M253.172 820.756C257.776 820.771 262.566 820.716 267.154 820.86C260.01 824.296 261.522 824.627 252.992 824.632L253.172 820.756Z" fill="#C8C7C7"/>
<path d="M275.662 18.8154C278.075 18.9549 280.486 19.1325 282.894 19.3479C285.792 20.191 286.171 19.628 286.954 22.7995C283.319 23.2032 276.913 23.178 274.497 19.9815C274.058 19.4023 272.747 19.3142 271.982 19.1413L275.662 18.8154Z" fill="#E8E7E7"/>
<path d="M198.79 22.2006C201.969 21.8126 202.31 20.9386 204.891 20.281C208.395 19.388 213.499 19.4394 217.213 19.3906C214.105 21.575 216.308 22.5696 210.168 22.5247C208.199 22.5103 204.798 22.7606 202.715 22.8431L198.79 22.2006Z" fill="#B5B4B4"/>
<path d="M212.421 714.409C217.899 711.493 227.643 712.419 234.368 711.845C227.522 714.305 219.668 715.682 212.421 714.409Z" fill="#B5B4B4"/>
<path d="M279.368 817.236C279.758 814.879 279.341 815.112 280.694 813.666C283.35 812.622 287.197 813.176 290.319 813.25C289.29 814.037 288.268 814.74 287.396 815.691C284.886 816.28 282.381 816.884 279.88 817.508L279.368 817.236Z" fill="#E8E7E7"/>
<path d="M279.369 817.235L279.881 817.508C274.233 819.369 273.727 820.043 267.668 820.845L268.095 818.429C270.119 816.31 275.721 817.335 279.369 817.235Z" fill="#DADAD9"/>
<path d="M242.994 824.815C244.579 824.756 245.777 824.707 247.348 824.513C251.106 821.994 248.172 820.974 253.172 820.756L252.992 824.632C252.231 824.771 249.851 825.256 249.203 825.301C246.742 825.261 245.404 825.127 242.994 824.815Z" fill="white"/>
<path d="M297.042 22.7899L301.904 22.7422L302.111 26.7851C300.679 26.7839 299.735 26.9833 298.658 26.1122C298.207 24.5622 298.086 24.0133 297.042 22.7899Z" fill="#E8E7E7"/>
<path d="M219.502 135.924C219.608 134.91 219.726 133.898 219.856 132.887C221.222 131.643 221.034 132.065 223.456 131.975L223.66 135.513L219.502 135.924Z" fill="#DADAD9"/>
<path d="M617.832 810.285C594.977 802.972 566.87 787.353 546.52 774.654C510.258 752.029 475.568 717.077 445.398 686.873L375.096 617.226C350.559 592.567 320.639 567.521 301.067 539.039C296.566 532.49 291.835 525.573 288.144 518.548C279.04 501.216 271.249 475.464 267.981 456.228C264.235 434.177 264.37 409.173 267.83 387.084C268.857 380.531 270.477 374.281 271.992 367.843C273.108 363.105 273.983 358.234 275.504 353.611C276.667 350.076 278.263 346.724 279.64 343.274C287.236 324.24 295.557 308.438 307.378 291.658C312.055 285.018 345.86 244.582 352.978 244.057C358.221 243.671 375.959 263.192 380.205 267.289C382.952 269.94 386.008 272.229 388.807 274.815C393.613 279.259 398.363 284.053 403.033 288.654C410.661 296.169 420.842 307.795 429.016 314.154L429.509 314.532C429.545 317.292 429.776 319.86 429.382 322.585C426.363 327.91 419.463 333.119 415.253 337.93C406.576 347.842 397.553 356.743 391.407 368.578C388.62 373.944 387.014 375.811 386.942 382.226C386.933 382.974 385.262 383.625 384.615 383.888C381.716 388.621 379.929 396.769 380.211 402.277C376.841 412.346 376.012 423.516 378.676 433.962C378.857 434.671 379.813 436.367 380.179 437.684C380.035 442.286 381.279 446.94 382.619 451.307C393.625 487.196 421.087 508.538 446.851 533.599L509.263 594.294C512.209 597.126 514.694 600.587 517.536 603.532C554.17 641.5 593.799 677.927 643.365 698.116C653.456 702.225 664.294 705.012 674.785 707.884C678.761 708.037 682.767 708.097 686.693 708.711C688.079 710.3 686.906 709.998 688.371 711.493L694.323 711.815C712.137 712.26 731.1 712.711 748.919 711.914C750.147 711.542 750.954 711.587 752.241 711.498C752.821 711.236 753.994 710.572 754.479 710.181C756.836 708.275 764.01 708.062 767.64 707.592C769.051 706.324 775.086 704.829 777.393 704.057C810.779 692.918 837.466 670.758 856.216 641.183C858.523 637.539 860.949 634.534 862.247 630.217C864.876 626.697 866.143 624.004 867.812 619.979C872.015 604.993 878.952 588.863 879.338 572.422C883.591 551.748 882.254 525.108 882.19 503.602C882.289 499.993 882.472 496.81 881.997 493.202C871.971 490.098 869.376 493.052 859.949 492.924C836.555 492.606 811.784 494.004 788.568 492.613C767.575 491.355 749.652 477.066 742.948 457.157C738.646 444.377 737.71 425.882 742.701 412.689C749.33 398.724 760.738 386.899 775.522 381.879L778.606 378.882L788.43 378.604C791.415 378.093 800.233 377.843 803.555 377.695C826.974 378.179 850.403 378.353 873.832 378.216C885.735 378.212 899.385 378.529 911.169 378.13C916.927 378.567 935.757 378.277 940.861 377.794C946.54 378.083 952.219 378.459 957.893 378.921C961.8 382.388 968.885 384.626 973.678 388.157C983.694 395.541 988.69 406.713 992.893 418.064C994.616 422.714 993.928 426.478 994.725 431.122L994.616 552.119C994.428 558.996 993.542 570.283 994.2 576.61L993.76 578.818L993.284 579.12L993.576 579.012L992.428 577.997C991.23 581.041 991.343 591.695 991.269 595.364C991.106 598.017 990.611 603.384 990.695 605.83C990.17 611.691 988.194 611.572 987.808 614.756L987.685 615.285C986.135 622.345 986.526 628.613 983.035 635.326C982.1 637.123 980.179 641.866 979.579 643.935C967.944 684.2 943.485 721.003 914.17 750.604C909.332 755.49 902.029 760.055 898.752 765.807C893.721 767.243 885.869 775.689 880.591 779.234C871.07 785.625 859.91 792.987 849.289 797.566C848.151 798.056 848.482 797.819 847.457 798.601C844.135 801.71 844.101 800.849 841.031 802.864L840.521 802.893C837.595 804.601 836.748 805.002 833.545 806.106C830.416 807.705 825.261 810.443 822.112 811.621C819.36 812.651 816.339 812.022 812.69 813.834C808.908 816.013 807.675 816.443 803.303 817.369L802.565 817.359C795.609 819.582 795.47 820.359 788.108 820.661L786.216 820.854L774.334 820.746L774.002 824.572L770.368 824.662C768.655 824.924 766.08 825.424 764.431 825.35C757.5 827.464 751.964 828.37 744.552 827.701L741.403 828.221C739.71 828.038 737.517 828.142 735.759 828.172C724.738 828.36 713.677 828.023 702.665 828.196C698.284 827.404 689.881 828.137 685.97 826.488L679.548 825.325C677.385 825.345 674.493 824.934 672.29 824.696L669.587 824.34C666.75 824.196 665.675 823.36 662.893 822.904L660.967 822.246C660.016 822.053 658.308 821.518 657.318 821.236C654.565 821.072 646.92 819.275 644.301 818.493C637.835 817.419 624.333 812.755 617.832 810.285Z" fill="#FFD700"/>
<path d="M689.471 824.657L723.812 824.816C729.931 824.801 737.928 824.479 743.899 824.752L744.552 827.702L741.403 828.222C739.71 828.039 737.517 828.143 735.759 828.172C724.738 828.361 713.677 828.024 702.665 828.197C698.284 827.405 689.881 828.138 685.97 826.489L679.548 825.326C682.975 825.207 686.059 825.148 689.471 824.657Z" fill="#FFD700"/>
<path d="M694.323 711.815C712.137 712.261 731.1 712.711 748.919 711.914C746.577 712.533 743.914 713.964 741.834 714.276C729.531 716.113 715.4 715.37 702.908 715.058C699.314 714.969 696.511 714.449 694.323 711.815Z" fill="#FFD700"/>
<path d="M743.898 824.751L760.94 824.83L764.431 825.35C757.499 827.464 751.964 828.37 744.552 827.702L743.898 824.751Z" fill="#FFD700"/>
<path d="M617.832 810.285C624.184 810.899 631.74 813.077 638.117 814.543C638.884 814.721 643.44 817.825 644.301 818.493C637.835 817.419 624.333 812.756 617.832 810.285Z" fill="#FFD700"/>
<path d="M672.285 821.325C674.35 821.072 677.37 820.389 678.667 821.815C682.945 826.513 683.965 822.85 689.471 824.657C686.059 825.147 682.975 825.206 679.549 825.325C677.385 825.345 674.493 824.934 672.29 824.696L672.285 821.325Z" fill="#FFD700"/>
<path d="M788.108 820.662C788.177 819.796 788.073 818.355 788.628 817.998C791.188 816.345 799.372 817.206 802.565 817.36C795.609 819.583 795.47 820.36 788.108 820.662Z" fill="#FFD700"/>
<path d="M674.785 707.885C678.761 708.038 682.766 708.098 686.693 708.712C688.079 710.301 686.906 709.999 688.371 711.494C682.014 711.568 679.816 711.9 674.785 707.885Z" fill="#FFD700"/>
<path d="M657.317 821.236C661.58 821.281 668.215 821.548 672.285 821.325L672.29 824.697L669.586 824.34C666.749 824.197 665.675 823.36 662.892 822.905L660.966 822.246C660.016 822.053 658.308 821.519 657.317 821.236Z" fill="#FFD700"/>
<path d="M752.241 711.498C752.82 711.236 753.994 710.572 754.479 710.181C756.836 708.275 764.01 708.062 767.639 707.592C761.589 711.528 759.346 711.473 752.241 711.498Z" fill="#FFD700"/>
<path d="M778.607 378.883L788.43 378.604C786.192 382.252 779.567 381.756 775.522 381.879L778.607 378.883Z" fill="#C8C7C7"/>
<path d="M803.303 817.37C803.481 815.077 803.09 815.092 804.273 813.686C806.635 812.701 809.927 813.508 812.69 813.835C808.908 816.013 807.675 816.444 803.303 817.37Z" fill="#C8C7C7"/>
<path d="M760.94 824.83C769.105 824.315 763.659 821.186 769.966 820.766C770.095 821.959 770.298 823.493 770.367 824.662C768.654 824.924 766.08 825.424 764.431 825.35L760.94 824.83Z" fill="#FFD700"/>
<path d="M841.031 802.864C841.066 800.651 840.793 799.775 842.204 798.393C844.081 798.186 845.586 798.423 847.457 798.601C844.135 801.71 844.101 800.849 841.031 802.864Z" fill="#C8C7C7"/>
<path d="M769.967 820.766L774.334 820.746L774.002 824.573L770.368 824.662C770.299 823.494 770.096 821.959 769.967 820.766Z" fill="#DADAD9"/>
<path d="M833.545 806.107C833.639 804.033 833.337 804.434 834.293 802.859C836.446 801.755 838.105 802.34 840.521 802.894C837.595 804.602 836.748 805.003 833.545 806.107Z" fill="#C8C7C7"/>
<path d="M701.329 19.2681L746.751 19.2308C751.657 19.2194 759.361 19.4986 764 19.2858L768.848 19.453C778.448 19.5816 777.022 21.1886 784.909 22.544L788.4 22.8135C797.262 23.4394 794.064 25.4339 798.03 26.7754C807.16 27.1823 813.369 30.6506 821.924 34.0374C857.766 47.8826 889.859 69.9526 915.605 98.4698C932.004 116.181 946.347 135.685 958.369 156.614C962.077 162.945 966.781 177.316 971.177 182.055C971.846 188.065 974.618 193.413 976.619 199.124C979.995 208.749 982.248 217.002 984.328 226.886C983.471 234.198 984.645 253.397 984.744 261.436C983.233 264.37 983.184 266.168 982.936 269.452C978.995 274.197 977.738 276.989 974.505 281.681C970.147 288.013 959.171 295.875 951.798 298.558C950.085 299.184 945.293 300.125 943.268 300.544C936.717 300.381 926.245 299.971 919.888 301.05C900.559 296.642 885.156 285.841 876.61 267.248C871.882 256.967 870.287 243.881 866.49 233.063C850.389 187.13 813.279 152.709 766.54 139.135C762.431 137.941 753.266 136.686 748.622 135.83C748.206 134.407 747.993 133.75 747.394 132.399C742.889 131.064 720.613 131.677 714.464 131.724C714.098 133.136 713.964 133.581 713.87 135.085C713.018 135.206 711.563 135.364 710.78 135.547L710.062 135.767L703.859 136.843C700.512 139.105 695.481 137.929 691.708 139.481C685.455 142.051 678.637 143.919 672.572 146.721C657.734 153.58 640.815 166.943 629.428 178.569C625.561 182.514 603.914 205.172 600.24 205.773C598.869 205.997 597.572 205.738 596.448 204.922C591.091 201.039 586.169 195.017 581.426 190.316L546.664 155.838C538.881 148.192 530.038 141.006 522.225 133.349C520.725 131.877 519.091 129.384 518.853 127.217C518.64 125.304 520.784 122.958 522.175 121.594C537.935 106.096 555.076 91.9328 572.38 78.2258C581.995 70.6081 591.477 62.1547 601.775 55.5529C614.337 47.4993 626.947 41.1421 640.583 35.1413C645.737 32.8739 656.6 27.5546 661.858 27.3962C672.067 22.8837 688.47 19.6309 699.606 19.3445L701.329 19.2681Z" fill="#FFD700"/>
<path d="M661.858 27.3955C672.067 22.8829 688.47 19.6301 699.606 19.3438C698.338 20.1392 698.14 20.455 697.328 21.6399C689.164 24.2828 683.158 20.4098 676.385 26.1159C671.755 26.4736 666.398 26.7591 661.858 27.3955Z" fill="#FFD700"/>
<path d="M768.848 19.4521C778.448 19.5808 777.022 21.1877 784.909 22.5431L788.4 22.8126L788.801 26.7907L785.276 26.7872C783.513 26.8398 783.062 26.9904 781.547 26.243C781.325 25.4245 781.156 24.6096 781.018 23.7733C775.735 20.6643 775.388 24.9813 769.778 21.8419C769.184 20.7514 769.179 20.6596 768.848 19.4521Z" fill="#FFD700"/>
<path d="M784.909 22.5439L788.4 22.8134L788.801 26.7915L785.276 26.7881L784.909 22.5439Z" fill="#FFD700"/>
<path d="M703.858 136.843C707.874 133.948 704.789 132.835 711.082 131.575L714.464 131.724C714.097 133.136 713.964 133.581 713.87 135.085C713.018 135.206 711.562 135.364 710.78 135.547L710.062 135.767L703.858 136.843Z" fill="#FFD700"/>
<path d="M711.083 131.575L714.464 131.724C714.098 133.136 713.964 133.581 713.87 135.085C713.018 135.206 711.563 135.364 710.781 135.547L710.063 135.767C710.053 133.306 709.8 133.172 711.083 131.575Z" fill="#FFD700"/>
<path d="M788.4 22.8135C797.263 23.4394 794.064 25.4339 798.03 26.7754L788.801 26.7916L788.4 22.8135Z" fill="#FFD700"/>
<path d="M136.387 228.617C137.07 232.412 136.928 240.716 136.901 244.812L136.764 268.823L136.813 358.527L136.76 553.367L136.69 625.865C136.665 637.801 136.939 650.233 136.586 662.08C135.689 658.728 136.076 650.089 136.137 646.287L134.469 653.565C133.399 639.534 133.567 627.123 133.576 613.053L133.616 565.679L133.64 413.232L133.634 304.403L133.622 260.816C133.626 251.694 133.39 242.185 134.483 233.11C134.703 231.288 135.771 231.758 136.387 228.617Z" fill="#C8C7C7" fill-opacity="0.309804"/>
<path d="M994.725 431.122C995.072 432.812 995.364 434.511 995.606 436.22C995.661 434.245 995.517 432.257 996.305 430.504L996.899 430.514C999.35 434.23 998.617 475.453 998.567 482.933C998.429 504.845 999.161 527.822 998.067 549.778C998.018 550.659 997.305 551.655 996.567 552.12L996.72 551.734C996.191 552.036 995.656 552.333 995.121 552.63L994.616 552.12L994.725 431.122Z" fill="#B5B4B4" fill-opacity="0.313725"/>
<path d="M702.665 828.197C713.677 828.024 724.738 828.361 735.759 828.172C737.517 828.143 739.71 828.039 741.403 828.222C745.523 828.682 751.415 827.648 753.915 828.984C754.41 830.341 754.405 829.673 753.895 831.054C747.726 831.45 694.541 832.019 691.743 830.777L691.708 829.737C693.847 827.4 699.021 828.663 702.665 828.197Z" fill="#FFD700"/>
<path d="M701.329 19.268C703.859 18.8215 708.146 18.7048 709.954 18.0173L710.305 16.1422C713.647 14.8938 746.404 15.1624 751.326 15.7644C752.509 16.7883 752.514 17.7888 752.568 17.8119C755.485 19.1462 760.832 18.4819 764.001 19.2856C759.361 19.4985 751.657 19.2193 746.751 19.2307L701.329 19.268Z" fill="#FFD700"/>
<path d="M881.407 504.9L882.19 503.603C882.254 525.108 883.591 551.748 879.338 572.423C878.417 559.15 878.466 549.694 878.353 536.431C879.368 530.747 878.016 525.807 878.932 520.331C879.942 519.668 879.377 519.836 880.734 520.098C881.041 521.074 880.843 520.826 881.447 521.579C881.947 518.43 881.873 508.118 881.407 504.9Z" fill="#FFD700"/>
<path d="M224.096 18.8227C228.054 18.3323 228.203 16.4704 230.806 15.8536C235.303 14.7877 266.625 14.6494 269.107 16.3942C271.282 17.9228 271.616 18.1482 274.317 18.3346L275.662 18.8152L271.982 19.1411C256.911 19.3974 239.05 19.5973 224.096 18.8227Z" fill="#B5B4B4" fill-opacity="0.815686"/>
<path d="M849.923 375.337C861.434 375.07 882.784 374.658 893.904 375.329C902.965 376.86 913.402 376.104 922.561 376.101C927.825 376.098 932.662 376.769 937.806 376.786C939.138 377.338 939.415 377.485 940.861 377.794C935.756 378.278 916.927 378.568 911.169 378.131C907.243 377.308 900.494 377.913 896.221 377.734C891.042 377.485 885.982 376.728 880.788 376.485C870.079 375.982 859.578 377.159 848.908 377.282C847.299 377.3 844.486 377.62 843.249 376.671C842.253 375.907 840.932 376.061 839.704 376.068L839.03 376.075C842.204 376.03 846.982 376.227 849.923 375.337Z" fill="#FFD700"/>
<path d="M803.555 377.695C806.788 377.034 810.799 377.51 813.923 376.934C826.029 374.703 837.604 375.165 849.923 375.336C846.982 376.226 842.204 376.029 839.03 376.074L839.704 376.067C840.932 376.06 842.254 375.906 843.249 376.67C844.487 377.619 847.299 377.299 848.908 377.281C859.578 377.158 870.079 375.981 880.789 376.484C885.982 376.727 891.042 377.484 896.221 377.733C900.494 377.913 907.243 377.307 911.169 378.13C899.385 378.528 885.735 378.212 873.832 378.216C850.403 378.353 826.974 378.179 803.555 377.695Z" fill="#FFD700"/>
<path d="M676.687 412.177L677.662 414.719L677.924 413.993C678.192 413.254 678.226 413.097 678.771 412.504C680.063 414.309 679.34 421.917 679.717 424.781C679.365 436.888 680.237 452.513 679.132 464.148L677.37 461.322C676.954 459.304 677.256 451.025 677.201 448.312C676.959 436.684 677.781 423.656 676.687 412.177Z" fill="#B5B4B4" fill-opacity="0.866667"/>
<path d="M380.179 437.684C379.813 436.368 378.857 434.671 378.676 433.962C376.012 423.516 376.841 412.347 380.211 402.277C380.647 409.071 381.157 431.532 380.179 437.684Z" fill="#FFD700"/>
<path d="M714.464 131.724C720.613 131.677 742.888 131.064 747.394 132.399C747.993 133.75 748.206 134.407 748.622 135.83L746.032 135.484C743.978 134.806 735.65 134.965 733.08 134.936C732.937 133.533 732.991 133.62 732.13 132.51C729.595 131.603 725.243 132.328 722.589 132.715C722.316 132.996 722.034 133.271 721.747 133.539C719.331 135.754 717.35 135.178 713.87 135.085C713.964 133.581 714.097 133.136 714.464 131.724Z" fill="#C8C7C7" fill-opacity="0.984314"/>
<path d="M984.328 226.885C984.892 225.554 985.397 224.395 986.026 223.095C986.264 228.73 987.893 257.783 985.333 261.275L984.744 261.436C984.645 253.397 983.471 234.198 984.328 226.885Z" fill="#FFD700"/>
<path d="M878.353 536.431C877.323 528.688 878.561 519.242 878.66 511.39C878.699 508.167 877.333 500.508 879.759 498.538L880.848 498.87C881.556 500.083 881.021 502.895 881.408 504.9C881.873 508.118 881.947 518.43 881.447 521.579C880.843 520.826 881.041 521.074 880.734 520.099C879.378 519.836 879.942 519.668 878.932 520.331C878.016 525.807 879.368 530.748 878.353 536.431Z" fill="#FFD700"/>
<path d="M677.37 461.322L679.132 464.149C679.281 464.615 679.87 466.58 679.796 466.853C678.939 470.192 679.623 481.137 678.989 483.536C678.345 483.19 677.726 482.869 677.033 482.638L677.013 483.079C676.934 484.38 677.018 484.807 676.256 485.866C674.741 478.26 676.83 468.864 677.37 461.322Z" fill="#DADAD9" fill-opacity="0.0156863"/>
<path d="M197.15 828.34L198.953 828.325C201.134 828.538 206.273 828.88 207.994 829.528C206.23 829.944 204.96 829.895 203.971 831.048L205.607 831.746C205.578 831.751 204.496 831.914 204.379 831.885C201.324 831.103 191.319 831.994 189.439 830.216C187.507 831.707 186.141 831.682 183.79 831.157C182.47 830.053 182.876 830.751 182.686 828.899C183.972 827.607 193.437 829.142 197.15 828.34Z" fill="#E8E7E7" fill-opacity="0.0235294"/>
<path d="M919.888 301.05C926.245 299.971 936.717 300.38 943.268 300.543C937.663 306.409 926.854 302.874 919.888 301.05Z" fill="#FFD700"/>
<path d="M713.87 135.085C717.35 135.178 719.331 135.754 721.747 133.539C722.034 133.271 722.317 132.996 722.589 132.715C725.243 132.328 729.595 131.603 732.13 132.51C732.991 133.62 732.937 133.533 733.08 134.936C735.65 134.965 743.978 134.806 746.033 135.484C743.874 135.798 735.774 135.686 733.293 135.679C725.906 135.657 718.143 135.797 710.78 135.547C711.563 135.364 713.018 135.206 713.87 135.085Z" fill="#FFD700"/>
<path d="M198.953 828.326C205.72 828.227 212.49 828.192 219.258 828.217L218.68 829.043C219.599 830.212 219.714 830.162 221.004 830.816C217.406 832.568 209.786 831.35 205.607 831.747L203.971 831.048C204.96 829.895 206.23 829.944 207.994 829.529C206.273 828.88 201.134 828.538 198.953 828.326Z" fill="#FFD700"/>
<path d="M675.959 402.766C677.385 400.864 677.409 399.919 677.875 397.661L678.637 398.068C679.296 404.078 680.345 419.754 679.717 424.781C679.34 421.917 680.063 414.309 678.771 412.505C678.226 413.097 678.192 413.254 677.924 413.994L677.662 414.72L676.687 412.177C676.736 409.399 675.701 406.699 675.959 402.766Z" fill="#D7D7D7" fill-opacity="0.01"/>
<path d="M991.269 595.365C991.343 591.696 991.229 581.042 992.428 577.998L993.576 579.012L993.284 579.121L993.759 578.819L994.2 576.611C994.532 580.577 995.547 588.751 993.69 592.196C992.938 591.572 993.037 591.686 992.398 590.919C991.715 592.686 991.616 593.478 991.269 595.365Z" fill="#FFD700"/>
<path d="M893.904 375.329C902.995 375.209 912.09 375.157 921.185 375.173C924.894 375.172 935.291 374.382 937.806 376.786C932.662 376.769 927.825 376.098 922.562 376.101C913.402 376.104 902.965 376.86 893.904 375.329Z" fill="#B5B4B4" fill-opacity="0.878431"/>
<path d="M282.894 19.3478C286.252 19.2929 290.366 19.162 293.561 19.9903C297.579 21.0319 298.986 21.9516 303.221 22.3791L303.569 22.817L301.904 22.7424L297.042 22.7901C293.68 22.7276 290.316 22.7307 286.954 22.7994C286.171 19.628 285.792 20.1909 282.894 19.3478Z" fill="#B5B4B4" fill-opacity="0.988235"/>
<path d="M774.334 820.746L786.216 820.855C782.181 822.999 778.557 824.519 774.002 824.573L774.334 820.746Z" fill="#B5B4B4" fill-opacity="0.980392"/>
<path d="M223.456 131.975C226.771 132.06 232.912 131.899 235.845 132.165C230.363 133.251 229.299 135.612 223.66 135.513L223.456 131.975Z" fill="#C8C7C7" fill-opacity="0.988235"/>
<path d="M429.509 314.533C430.728 314.838 431.733 314.717 432.271 315.887C433.481 318.516 433.436 319.863 431.984 322.269C430.891 322.733 430.57 322.619 429.382 322.586C429.776 319.861 429.545 317.292 429.509 314.533Z" fill="#C8C7C7" fill-opacity="0.988235"/>
<path d="M990.695 605.83C990.878 608.805 991.408 616.103 989.704 618.276C988.378 617.44 988.402 616.553 987.808 614.756C988.194 611.573 990.17 611.692 990.695 605.83Z" fill="#FFD700"/>
</svg>
